<?xml version="1.0" standalone="no"?>
<!DOCTYPE svg PUBLIC "-//W3C//DTD SVG 20010904//EN"
 "http://www.w3.org/TR/2001/REC-SVG-20010904/DTD/svg10.dtd">
<svg version="1.0" xmlns="http://www.w3.org/2000/svg"
 width="260.000000pt" height="260.000000pt" viewBox="0 0 260.000000 260.000000"
 preserveAspectRatio="xMidYMid meet">
<metadata>
Created by potrace 1.14, written by Peter Selinger 2001-2017
</metadata>
<g transform="translate(0.000000,260.000000) scale(0.100000,-0.100000)"
fill="#000000" stroke="none">
<path d="M203 2582 c-100 -35 -171 -115 -193 -216 -8 -36 -10 -361 -8 -1096
l3 -1045 28 -57 c32 -64 80 -111 146 -142 46 -21 49 -21 1126 -21 l1080 0 42
23 c66 35 110 79 140 140 l28 57 0 1075 c0 1072 0 1075 -21 1121 -31 66 -78
114 -142 146 l-57 28 -1060 2 c-997 2 -1063 1 -1112 -15z m487 -102 c11 -11
20 -27 20 -35 0 -9 11 -26 25 -38 28 -25 37 -83 54 -342 7 -109 40 -410 46
-422 1 -1 98 -16 216 -33 195 -29 220 -30 287 -19 40 6 101 9 137 6 l65 -6 0
77 c1 97 16 262 31 325 18 77 71 104 119 61 14 -12 15 -9 12 20 -6 47 12 76
47 76 34 0 46 -13 56 -60 4 -19 18 -57 31 -85 12 -27 30 -92 40 -143 9 -51 18
-91 19 -90 6 6 85 517 94 603 7 67 13 92 27 102 24 18 49 16 65 -3 34 -41 61
-597 40 -809 -29 -274 -90 -534 -196 -825 -18 -49 -29 -60 -62 -60 -16 0 -23
-6 -23 -21 0 -24 48 -218 88 -349 31 -106 31 -123 -1 -137 -53 -22 -67 1 -121
201 -18 65 -35 115 -38 110 -3 -5 -15 -39 -27 -75 -26 -79 -58 -114 -96 -105
-14 4 -30 17 -35 29 -17 41 -45 363 -66 744 l-6 123 -72 -8 c-39 -4 -184 -7
-322 -7 l-250 0 -34 -45 -34 -45 -1 -131 c0 -101 -3 -135 -15 -149 -12 -14
-16 -57 -18 -203 l-4 -184 -27 -16 -28 -15 13 -81 c17 -102 18 -178 2 -194
-19 -19 -56 -14 -72 11 -7 12 -17 55 -20 96 -7 86 -11 94 -35 82 -27 -15 -58
-2 -70 27 -6 15 -17 117 -26 227 -8 110 -17 220 -19 245 -5 55 11 95 53 135
l32 29 -6 86 c-10 145 12 130 -190 130 -162 0 -177 2 -195 20 -51 51 5 99 134
115 l58 7 -6 51 c-5 31 -16 61 -32 80 -30 36 -31 62 -1 90 14 13 31 50 41 89
10 37 40 114 67 170 27 57 49 108 49 114 0 6 9 19 19 28 11 10 36 56 55 102
35 84 35 84 29 198 -6 111 -5 113 18 129 30 22 35 21 59 -3z"/>
<path d="M2002 1793 c-18 -116 -20 -145 -10 -183 l12 -45 8 35 c9 40 23 330
17 330 -3 0 -15 -62 -27 -137z"/>
<path d="M497 1741 c-9 -30 -17 -56 -17 -57 0 -1 11 -4 25 -6 23 -5 25 -2 24
26 -1 17 -5 45 -8 61 -7 29 -8 28 -24 -24z"/>
<path d="M1641 1653 c-1 -74 2 -93 13 -93 12 0 13 12 9 58 -11 117 -21 133
-22 35z"/>
<path d="M492 1473 c2 -12 14 -19 36 -21 28 -3 33 0 30 15 -2 12 -14 19 -36
21 -28 3 -33 0 -30 -15z"/>
<path d="M1430 1399 c0 -5 11 -9 25 -9 14 0 25 2 25 4 0 2 -11 6 -25 8 -14 3
-25 1 -25 -3z"/>
<path d="M1653 1322 c-10 -6 -11 -45 -6 -168 l7 -159 12 130 c19 204 19 217
-13 197z"/>
<path d="M611 868 c-1 -44 3 -58 13 -58 14 0 13 10 -7 95 -3 11 -5 -6 -6 -37z"/>
</g>
</svg>
